<?xml version="1.0"?>
<svg xmlns="http://www.w3.org/2000/svg" id="Layer_1" data-name="Layer 1" viewBox="0 0 512 512" width="512" height="512"><title>Bag2</title><path d="M377.848,330.368l-5.718-1.525a8.119,8.119,0,0,1-5.456-4.777A24,24,0,0,0,344.28,309H164.8L144.09,275.849A8.091,8.091,0,0,0,137.311,272h-14.19A8.189,8.189,0,0,0,115,280.1v70.8a8.055,8.055,0,0,0,4.906,7.352L148.6,370.661A125.8,125.8,0,0,0,198.407,381h38.446l-26,47.158A7.991,7.991,0,0,0,217.864,440h36.658a7.944,7.944,0,0,0,6.036-2.686L309.6,381h61.638a25.764,25.764,0,0,0,6.606-50.632ZM131,288h1.882l13.035,21H131Zm240.242,77H305.961a7.944,7.944,0,0,0-6.036,2.686L250.878,424H231.394l26-47.319a7.836,7.836,0,0,0-.124-7.84A7.918,7.918,0,0,0,250.383,365H198.407a110.034,110.034,0,0,1-43.529-9.043L131,345.627V325H344.28a8.067,8.067,0,0,1,7.555,5.052,24.231,24.231,0,0,0,16.172,14.274l5.718,1.513A9.758,9.758,0,0,1,371.242,365Z"/><path d="M72.264,500H439.736a8.192,8.192,0,0,0,7.969-8.878L417.569,149.241A7.951,7.951,0,0,0,409.6,142H358V106.2c0-51.812-44.522-93.965-99-93.965S160,54.388,160,106.2V142H102.4a7.926,7.926,0,0,0-7.969,7.212L64.3,491.106a8.219,8.219,0,0,0,2.069,6.2A8.093,8.093,0,0,0,72.264,500ZM176,106.2c0-42.99,37.344-77.965,83-77.965S342,63.21,342,106.2V142H176ZM109.726,158H160v60.935a8,8,0,0,0,16,0V158H342v60.935a8,8,0,0,0,16,0V158h44.274L431,484H81Z"/></svg>
