<?xml version="1.0"?>
<svg xmlns="http://www.w3.org/2000/svg" id="Layer_1" data-name="Layer 1" viewBox="0 0 512 512" width="512" height="512"><title>Calendar</title><path d="M65.634,476H446.366C471.529,476,492,454.847,492,428.6V122.341C492,96.1,471.529,75,446.366,75H412V43.8a8,8,0,1,0-16,0V75H115V43.8a8,8,0,0,0-16,0V75H65.634C40.471,75,20,96.1,20,122.343V428.6C20,454.847,40.471,476,65.634,476Zm380.732-16H65.634C49.294,460,36,446.025,36,428.6V184H476V428.6C476,446.025,462.706,460,446.366,460ZM65.634,91H99v23.423a8,8,0,0,0,16,0V91H396v23.423a8,8,0,0,0,16,0V91h34.366C462.706,91,476,104.917,476,122.341V168H36V122.343C36,104.918,49.294,91,65.634,91Z"/><path d="M377.848,297.368l-5.718-1.525a8.117,8.117,0,0,1-5.456-4.777A24,24,0,0,0,344.28,276H164.8L144.09,242.849A8.091,8.091,0,0,0,137.311,239h-14.19A8.189,8.189,0,0,0,115,247.1v70.8a8.054,8.054,0,0,0,4.906,7.352L148.6,337.661A125.8,125.8,0,0,0,198.407,348h38.446l-26,47.158A7.99,7.99,0,0,0,217.864,407h36.658a7.944,7.944,0,0,0,6.036-2.686L309.6,348h61.638a25.764,25.764,0,0,0,6.606-50.632ZM131,255h1.882l13.035,21H131Zm240.242,77H305.961a7.944,7.944,0,0,0-6.036,2.686L250.878,391H231.394l26-47.319a7.836,7.836,0,0,0-.124-7.84A7.918,7.918,0,0,0,250.383,332H198.407a110.034,110.034,0,0,1-43.529-9.043L131,312.627V292H344.28a8.069,8.069,0,0,1,7.555,5.052,24.232,24.232,0,0,0,16.172,14.275l5.718,1.513A9.757,9.757,0,0,1,371.242,332Z"/></svg>
