<?xml version="1.0"?>
<svg xmlns="http://www.w3.org/2000/svg" id="Layer_1" data-name="Layer 1" viewBox="0 0 512 512" width="512" height="512"><title>Document</title><path d="M453.776,106.471,361.555,12.519a8.022,8.022,0,0,0-1.884-1.919l-.247-.228A7.978,7.978,0,0,0,353.715,8H138.734C115.961,8,97.171,23.834,93.477,44.59,71.594,48,55,66.145,55,87.989V460.042C55,484.307,75.344,504,100.755,504H373.266c22.773,0,41.563-15.834,45.257-36.59C440.406,464,457,445.855,457,424.011V113.361a7.848,7.848,0,0,0-1.943-5.411A7.179,7.179,0,0,0,453.776,106.471ZM363,36.816,429.672,105H374.027C367.938,105,363,100.269,363,94.753ZM373.266,488H100.755C84.166,488,71,475.484,71,460.042V87.989c0-12.828,9-23.661,22-26.964V424.011C93,448.275,113.323,468,138.734,468H402.1C398.4,480,386.879,488,373.266,488ZM441,424.011C441,439.453,427.834,452,411.245,452H138.734C122.145,452,109,439.453,109,424.011V53.225c0-.405-.07-.818-.07-1.241a7.733,7.733,0,0,0-.165-1.034C109.35,35.985,122.517,24,138.734,24H347V94.753C347,109.091,359.116,121,374.027,121H441Z"/><path d="M150.794,292H282.326a8,8,0,0,0,0-16H150.794a8,8,0,1,0,0,16Z"/><path d="M379.708,315H150.794a8,8,0,1,0,0,16H379.708a8,8,0,1,0,0-16Z"/><path d="M379.708,354H150.794a8,8,0,1,0,0,16H379.708a8,8,0,1,0,0-16Z"/><path d="M379.708,393H150.794a8,8,0,1,0,0,16H379.708a8,8,0,1,0,0-16Z"/><path d="M174.09,97.849A8.09,8.09,0,0,0,167.311,94h-14.19A8.188,8.188,0,0,0,145,102.1v70.8a8.055,8.055,0,0,0,4.906,7.352L178.6,192.661A125.8,125.8,0,0,0,228.407,203h38.446l-26,47.158A7.991,7.991,0,0,0,247.864,262h36.658a7.944,7.944,0,0,0,6.036-2.686L339.605,203h61.637a25.732,25.732,0,0,0,6.606-50.576l-5.719-1.553a8.143,8.143,0,0,1-5.456-4.791A24.01,24.01,0,0,0,374.28,131H194.8ZM161,110h1.883l13.034,21H161Zm220.835,42.052a24.233,24.233,0,0,0,16.172,14.274l5.719,1.513A9.758,9.758,0,0,1,401.242,187H335.961a7.944,7.944,0,0,0-6.036,2.686L280.878,246H261.4l26-47.319a7.838,7.838,0,0,0-.124-7.84A7.918,7.918,0,0,0,280.383,187H228.407a110.034,110.034,0,0,1-43.529-9.043L161,167.627V147H374.28A8.066,8.066,0,0,1,381.835,152.052Z"/></svg>
