<?xml version="1.0" standalone="no"?>
<!DOCTYPE svg PUBLIC "-//W3C//DTD SVG 20010904//EN"
 "http://www.w3.org/TR/2001/REC-SVG-20010904/DTD/svg10.dtd">
<svg version="1.0" xmlns="http://www.w3.org/2000/svg"
 width="550.000000pt" height="550.000000pt" viewBox="0 0 550.000000 550.000000"
 preserveAspectRatio="xMidYMid meet">
<metadata>
Created by potrace 1.15, written by Peter Selinger 2001-2017
</metadata>
<g transform="translate(0.000000,550.000000) scale(0.100000,-0.100000)"
fill="#000000" stroke="none">
<path d="M2514 5103 c-22 -24 -36 -28 -101 -34 -74 -6 -77 -7 -113 -48 -35
-42 -37 -43 -82 -36 -49 7 -100 -11 -112 -40 -7 -19 -65 -45 -101 -45 -41 0
-85 -27 -145 -89 -30 -31 -80 -73 -111 -93 -36 -24 -67 -54 -84 -83 -14 -25
-44 -57 -66 -72 -47 -31 -67 -65 -76 -130 -8 -61 -34 -122 -63 -148 -32 -28
-50 -68 -50 -109 0 -28 -9 -44 -46 -81 l-47 -46 7 -70 c5 -58 3 -76 -14 -109
-11 -21 -20 -54 -20 -72 0 -41 -7 -51 -45 -69 -39 -18 -42 -41 -14 -101 l23
-48 -27 -28 c-22 -23 -27 -39 -33 -111 -7 -78 -9 -85 -41 -114 -39 -36 -41
-52 -9 -96 16 -21 27 -54 32 -90 3 -31 19 -86 35 -123 31 -70 36 -107 19 -139
-8 -13 -6 -35 4 -76 11 -42 13 -69 6 -98 -15 -63 -12 -84 16 -108 36 -31 54
-69 54 -117 0 -55 13 -76 55 -90 29 -9 40 -23 70 -82 19 -39 35 -76 35 -83 0
-16 66 -75 84 -75 8 0 37 -18 65 -40 63 -50 107 -55 117 -13 4 15 0 63 -9 108
-35 181 -41 240 -29 313 17 98 15 255 -3 351 -17 88 -12 144 23 252 22 69 43
75 71 20 12 -22 26 -43 32 -46 6 -4 28 10 50 31 21 21 41 35 44 33 2 -3 -12
-29 -32 -58 -26 -37 -33 -55 -25 -63 17 -17 60 0 104 41 44 41 49 60 33 146
-5 30 -2 45 9 60 16 20 17 19 47 -17 20 -25 39 -38 55 -38 26 0 64 35 64 60 0
27 30 60 54 60 32 0 73 -34 78 -65 7 -34 -10 -125 -28 -152 -41 -65 12 -88 64
-28 17 19 34 50 38 70 3 19 8 35 10 35 2 0 25 -15 51 -34 27 -18 76 -44 111
-56 65 -24 71 -24 249 7 31 5 32 4 35 -38 4 -53 26 -62 70 -29 72 53 133 -56
65 -117 -33 -29 -239 -123 -270 -123 -15 0 -43 -6 -62 -14 -27 -11 -36 -23
-45 -55 -6 -22 -14 -42 -19 -45 -4 -3 -21 9 -37 25 -61 65 -116 59 -135 -16
-13 -51 -20 -54 -48 -24 -19 20 -25 21 -168 14 -163 -7 -218 -17 -227 -41 -13
-33 -5 -52 24 -64 17 -7 30 -16 30 -19 0 -4 -48 -17 -106 -28 -85 -17 -112
-27 -134 -48 -37 -35 -45 -70 -25 -101 27 -42 76 -30 105 26 11 21 26 40 35
44 30 11 54 6 60 -13 3 -11 15 -31 26 -45 24 -31 55 -33 121 -9 26 9 51 13 55
9 9 -9 -1 -17 -96 -79 -35 -23 -64 -47 -63 -52 2 -24 32 -29 93 -16 87 17 131
43 176 98 21 27 75 85 120 131 72 73 85 82 118 82 20 0 53 -7 72 -16 74 -36
86 -100 49 -264 -14 -63 -35 -140 -47 -170 -18 -47 -19 -59 -9 -97 11 -38 10
-46 -9 -78 -11 -20 -21 -52 -21 -71 0 -30 5 -37 33 -48 17 -7 58 -16 91 -20
75 -8 87 -16 45 -30 -39 -13 -59 -46 -59 -98 l0 -37 -36 21 c-29 17 -46 20
-98 16 -79 -7 -156 -39 -156 -66 0 -13 -9 -22 -24 -26 -13 -3 -36 -23 -52 -43
-15 -21 -47 -57 -70 -79 -51 -51 -64 -91 -64 -206 0 -103 27 -174 69 -185 33
-8 47 13 60 93 17 97 25 111 68 124 45 13 471 35 481 25 4 -4 -2 -12 -12 -19
-11 -6 -28 -19 -38 -29 -18 -17 -18 -20 -3 -43 15 -23 15 -25 -7 -33 -13 -5
-70 -14 -127 -20 -130 -16 -175 -29 -179 -56 -9 -63 222 -157 349 -142 41 5
50 3 59 -13 20 -37 11 -68 -27 -99 -112 -90 -175 -134 -235 -166 -70 -36 -87
-61 -73 -104 17 -56 145 -84 271 -61 91 17 228 62 307 101 35 17 101 62 147
100 46 38 87 69 91 69 14 0 152 170 236 291 48 68 127 178 176 244 50 66 110
160 134 210 37 79 44 101 49 180 4 50 13 100 20 112 8 13 41 36 73 52 64 33
113 82 137 139 36 86 151 542 153 607 2 83 18 124 68 169 60 55 72 81 79 173
7 102 49 239 85 281 37 42 36 56 -6 103 l-34 38 6 78 c5 74 4 80 -21 110 -14
17 -26 34 -26 38 0 3 12 22 26 40 33 44 30 83 -10 105 -30 16 -47 46 -39 67 3
7 -4 39 -16 72 -19 56 -19 62 -5 105 21 60 12 90 -36 134 -35 31 -40 41 -40
79 0 47 -18 90 -46 114 -29 24 -54 91 -54 147 0 72 -19 112 -69 146 -23 16
-54 50 -68 75 -39 68 -50 79 -112 101 -33 13 -73 38 -99 63 l-42 41 -103 6
c-94 5 -108 8 -154 38 -40 26 -60 32 -104 32 -45 0 -61 5 -89 28 -51 41 -67
45 -128 26 -45 -15 -64 -16 -111 -7 -31 7 -70 9 -87 6 -26 -4 -35 0 -53 26
-28 39 -61 40 -113 4 l-39 -26 -38 21 c-36 21 -44 21 -114 10 -75 -11 -76 -11
-111 15 -44 34 -70 34 -102 0z"/>
<path d="M2303 1905 c-27 -11 -33 -20 -33 -43 0 -48 21 -58 93 -43 77 16 97
27 97 51 0 45 -89 65 -157 35z"/>
</g>
</svg>
