<!-- <?xml version="1.0" standalone="no"?>
<!DOCTYPE svg PUBLIC "-//W3C//DTD SVG 20010904//EN"
 "http://www.w3.org/TR/2001/REC-SVG-20010904/DTD/svg10.dtd"> -->
<svg version="1.0" xmlns="http://www.w3.org/2000/svg"
 width="1818.000000pt" height="780.000000pt" viewBox="0 0 1818.000000 780.000000"
 preserveAspectRatio="xMidYMid meet">
<metadata>
Created by potrace 1.15, written by Peter Selinger 2001-2017
</metadata>
<g transform="translate(0.000000,780.000000) scale(0.100000,-0.100000)"
fill="#FCFCFC" stroke="none">
<path d="M1756 7584 c-98 -19 -160 -41 -251 -87 -218 -113 -374 -304 -452
-554 l-28 -88 -3 -1016 -3 -1016 43 -19 c111 -50 237 -149 321 -252 279 -341
289 -818 26 -1173 -82 -111 -208 -216 -327 -274 l-61 -30 2 -1000 2 -1000 23
-80 c87 -312 313 -544 629 -642 l88 -28 958 -3 957 -3 0 3641 0 3640 -927 -1
c-741 -1 -942 -4 -997 -15z"/>
<path d="M4340 3960 l0 -3640 6393 2 6392 3 80 22 c313 88 543 314 642 630
l28 88 0 2885 0 2885 -22 85 c-82 312 -312 548 -630 647 l-88 28 -6397 3
-6398 2 0 -3640z"/>
</g>
</svg>
